<mxfile host="app.diagrams.net" agent="Mozilla/5.0 (Windows NT 10.0; Win64; x64; rv:135.0) Gecko/20100101 Firefox/135.0" version="26.0.11">
  <diagram name="Page-1" id="odjwMTum2nBsbljHC8KE">
    <mxGraphModel dx="2269" dy="2337" grid="1" gridSize="10" guides="1" tooltips="1" connect="1" arrows="1" fold="1" page="1" pageScale="1" pageWidth="850" pageHeight="1100" math="0" shadow="0">
      <root>
        <mxCell id="0" />
        <mxCell id="1" parent="0" />
        <mxCell id="wpxU90EAjagGXDWV2H-K-5" style="edgeStyle=orthogonalEdgeStyle;rounded=0;orthogonalLoop=1;jettySize=auto;html=1;entryX=0;entryY=0.5;entryDx=0;entryDy=0;strokeWidth=3;" parent="1" source="wpxU90EAjagGXDWV2H-K-1" target="wpxU90EAjagGXDWV2H-K-4" edge="1">
          <mxGeometry relative="1" as="geometry" />
        </mxCell>
        <mxCell id="wpxU90EAjagGXDWV2H-K-1" value="&lt;font style=&quot;font-size: 30px;&quot;&gt;(2) Centroids&lt;/font&gt;" style="rounded=1;whiteSpace=wrap;html=1;fillColor=#1ba1e2;strokeWidth=3;strokeColor=#006EAF;fontColor=#ffffff;" parent="1" vertex="1">
          <mxGeometry x="490" y="230" width="210" height="130" as="geometry" />
        </mxCell>
        <mxCell id="wpxU90EAjagGXDWV2H-K-3" style="edgeStyle=orthogonalEdgeStyle;rounded=0;orthogonalLoop=1;jettySize=auto;html=1;entryX=0;entryY=0.5;entryDx=0;entryDy=0;strokeWidth=3;" parent="1" source="wpxU90EAjagGXDWV2H-K-2" target="wpxU90EAjagGXDWV2H-K-1" edge="1">
          <mxGeometry relative="1" as="geometry" />
        </mxCell>
        <mxCell id="wpxU90EAjagGXDWV2H-K-2" value="&lt;font style=&quot;font-size: 30px;&quot;&gt;(1) Choose number of cluster K&lt;/font&gt;" style="rounded=1;whiteSpace=wrap;html=1;fillColor=#1ba1e2;strokeWidth=3;strokeColor=#006EAF;fontColor=#ffffff;" parent="1" vertex="1">
          <mxGeometry x="90" y="230" width="290" height="130" as="geometry" />
        </mxCell>
        <mxCell id="wpxU90EAjagGXDWV2H-K-7" style="edgeStyle=orthogonalEdgeStyle;rounded=0;orthogonalLoop=1;jettySize=auto;html=1;entryX=0;entryY=0.5;entryDx=0;entryDy=0;strokeWidth=3;" parent="1" source="wpxU90EAjagGXDWV2H-K-4" target="wpxU90EAjagGXDWV2H-K-6" edge="1">
          <mxGeometry relative="1" as="geometry" />
        </mxCell>
        <mxCell id="wpxU90EAjagGXDWV2H-K-4" value="&lt;font style=&quot;font-size: 30px;&quot;&gt;(3) Calculate objects distance to centroids&lt;/font&gt;" style="rounded=1;whiteSpace=wrap;html=1;fillColor=#1ba1e2;strokeWidth=3;strokeColor=#006EAF;fontColor=#ffffff;" parent="1" vertex="1">
          <mxGeometry x="800" y="230" width="290" height="130" as="geometry" />
        </mxCell>
        <mxCell id="wpxU90EAjagGXDWV2H-K-9" style="edgeStyle=orthogonalEdgeStyle;rounded=0;orthogonalLoop=1;jettySize=auto;html=1;entryX=0;entryY=0.5;entryDx=0;entryDy=0;strokeWidth=3;" parent="1" source="wpxU90EAjagGXDWV2H-K-6" target="wpxU90EAjagGXDWV2H-K-8" edge="1">
          <mxGeometry relative="1" as="geometry" />
        </mxCell>
        <mxCell id="wpxU90EAjagGXDWV2H-K-6" value="&lt;font style=&quot;font-size: 30px;&quot;&gt;(4) Group objects based on minimum distance&lt;/font&gt;" style="rounded=1;whiteSpace=wrap;html=1;fillColor=#1ba1e2;strokeWidth=3;strokeColor=#006EAF;fontColor=#ffffff;" parent="1" vertex="1">
          <mxGeometry x="1180" y="230" width="290" height="130" as="geometry" />
        </mxCell>
        <mxCell id="wpxU90EAjagGXDWV2H-K-14" style="edgeStyle=orthogonalEdgeStyle;rounded=0;orthogonalLoop=1;jettySize=auto;html=1;entryX=0.5;entryY=1;entryDx=0;entryDy=0;strokeWidth=3;" parent="1" source="wpxU90EAjagGXDWV2H-K-8" target="wpxU90EAjagGXDWV2H-K-13" edge="1">
          <mxGeometry relative="1" as="geometry" />
        </mxCell>
        <mxCell id="wpxU90EAjagGXDWV2H-K-17" value="&lt;font style=&quot;font-size: 30px;&quot;&gt;YES&lt;/font&gt;" style="edgeLabel;html=1;align=center;verticalAlign=middle;resizable=0;points=[];" parent="wpxU90EAjagGXDWV2H-K-14" vertex="1" connectable="0">
          <mxGeometry x="-0.3045" y="2" relative="1" as="geometry">
            <mxPoint x="42" y="-3" as="offset" />
          </mxGeometry>
        </mxCell>
        <mxCell id="wpxU90EAjagGXDWV2H-K-18" style="edgeStyle=orthogonalEdgeStyle;rounded=0;orthogonalLoop=1;jettySize=auto;html=1;entryX=0.5;entryY=1;entryDx=0;entryDy=0;strokeWidth=3;" parent="1" source="wpxU90EAjagGXDWV2H-K-8" target="wpxU90EAjagGXDWV2H-K-2" edge="1">
          <mxGeometry relative="1" as="geometry">
            <Array as="points">
              <mxPoint x="1740" y="500" />
              <mxPoint x="235" y="500" />
            </Array>
          </mxGeometry>
        </mxCell>
        <mxCell id="wpxU90EAjagGXDWV2H-K-8" value="&lt;font style=&quot;font-size: 30px;&quot;&gt;(5) Centroids no longer moves&lt;/font&gt;" style="rhombus;whiteSpace=wrap;html=1;strokeWidth=3;fillColor=#008a00;strokeColor=#005700;fontColor=#ffffff;" parent="1" vertex="1">
          <mxGeometry x="1560" y="150" width="360" height="290" as="geometry" />
        </mxCell>
        <mxCell id="wpxU90EAjagGXDWV2H-K-11" style="edgeStyle=orthogonalEdgeStyle;rounded=0;orthogonalLoop=1;jettySize=auto;html=1;entryX=0.5;entryY=0;entryDx=0;entryDy=0;strokeWidth=3;" parent="1" source="wpxU90EAjagGXDWV2H-K-10" target="wpxU90EAjagGXDWV2H-K-2" edge="1">
          <mxGeometry relative="1" as="geometry" />
        </mxCell>
        <mxCell id="wpxU90EAjagGXDWV2H-K-10" value="&lt;font style=&quot;font-size: 30px;&quot;&gt;Start&lt;/font&gt;" style="ellipse;whiteSpace=wrap;html=1;fillColor=#f0a30a;strokeWidth=3;strokeColor=#BD7000;fontColor=#000000;" parent="1" vertex="1">
          <mxGeometry x="135" y="-10" width="200" height="110" as="geometry" />
        </mxCell>
        <mxCell id="wpxU90EAjagGXDWV2H-K-13" value="&lt;font style=&quot;font-size: 30px;&quot;&gt;Start&lt;/font&gt;" style="ellipse;whiteSpace=wrap;html=1;fillColor=#f0a30a;strokeWidth=3;strokeColor=#BD7000;fontColor=#000000;" parent="1" vertex="1">
          <mxGeometry x="1640" y="-10" width="200" height="110" as="geometry" />
        </mxCell>
        <mxCell id="wpxU90EAjagGXDWV2H-K-19" value="&lt;font style=&quot;font-size: 30px;&quot;&gt;NO&lt;/font&gt;" style="edgeLabel;html=1;align=center;verticalAlign=middle;resizable=0;points=[];" parent="1" vertex="1" connectable="0">
          <mxGeometry x="1780" y="199.99818181818176" as="geometry">
            <mxPoint x="-5" y="266" as="offset" />
          </mxGeometry>
        </mxCell>
      </root>
    </mxGraphModel>
  </diagram>
</mxfile>
